<svg width="256" height="256" viewBox="0 0 256 256" fill="none" xmlns="http://www.w3.org/2000/svg">
<g clip-path="url(#clip0_38_20)">
<path d="M128 256C198.934 256 256 198.934 256 128C256 57.0662 198.934 0 128 0C57.0662 0 0 57.0662 0 128C0 198.934 57.0662 256 128 256Z" fill="#2775CA"/>
<path d="M163.2 148.266C163.2 129.6 152 123.2 129.6 120.534C113.6 118.4 110.4 114.134 110.4 106.666C110.4 99.1987 115.733 94.4 126.4 94.4C136 94.4 141.333 97.6 144 105.6C144.533 107.2 146.133 108.266 147.733 108.266H156.266C158.4 108.266 160 106.666 160 104.534V104C157.866 92.2662 148.266 83.2 136 82.1338V69.3338C136 67.2 134.4 65.6 131.733 65.0662H123.733C121.6 65.0662 120 66.6662 119.466 69.3338V81.6C103.466 83.7338 93.3334 94.4 93.3334 107.734C93.3334 125.334 104 132.266 126.4 134.934C141.333 137.6 146.133 140.8 146.133 149.334C146.133 157.868 138.666 163.734 128.533 163.734C114.666 163.734 109.866 157.866 108.266 149.866C107.733 147.734 106.133 146.666 104.533 146.666H95.4659C93.3334 146.666 91.7334 148.266 91.7334 150.4V150.934C93.8659 164.266 102.4 173.866 120 176.534V189.334C120 191.466 121.6 193.066 124.266 193.6H132.266C134.4 193.6 136 192 136.533 189.334V176.534C152.533 173.866 163.2 162.666 163.2 148.266Z" fill="white"/>
<path d="M100.8 204.266C59.1997 189.334 37.8659 142.934 53.3334 101.866C61.3334 79.4663 78.9334 62.4 100.8 54.4C102.933 53.3338 104 51.7338 104 49.0662V41.6C104 39.4662 102.933 37.8663 100.8 37.3338C100.266 37.3338 99.1997 37.3338 98.6659 37.8662C47.9997 53.8662 20.2659 107.734 36.2659 158.4C45.8659 188.266 68.7997 211.2 98.6659 220.8C100.8 221.866 102.933 220.8 103.466 218.666C104 218.134 104 217.6 104 216.534V209.066C104 207.466 102.4 205.334 100.8 204.266ZM157.333 37.8662C155.2 36.8 153.066 37.8662 152.533 40C152 40.5338 152 41.0663 152 42.1338V49.6C152 51.7338 153.6 53.8663 155.2 54.9338C196.8 69.8663 218.133 116.266 202.666 157.334C194.666 179.734 177.066 196.8 155.2 204.8C153.066 205.866 152 207.466 152 210.134V217.6C152 219.734 153.066 221.334 155.2 221.866C155.733 221.866 156.8 221.866 157.333 221.334C208 205.334 235.733 151.466 219.733 100.8C210.133 70.4 186.666 47.4662 157.333 37.8662Z" fill="white"/>
<circle cx="224" cy="224" r="32" fill="#644AEE"/>
<path d="M230.23 220.707V222.268H228.669V220.707H230.23ZM231.791 220.707V222.268H230.23V220.707H231.791ZM233.352 220.707V222.268H231.791V220.707H233.352ZM234.913 220.707V222.268H233.352V220.707H234.913ZM236.474 220.707V222.268H234.913V220.707H236.474ZM236.474 219.146V220.707H234.913V219.146H236.474ZM236.474 217.585V219.146H234.913V217.585H236.474ZM234.913 217.585V219.146H233.352V217.585H234.913ZM233.352 217.585V219.146H231.791V217.585H233.352ZM231.791 217.585V219.146H230.23V217.585H231.791ZM231.791 219.146V220.707H230.23V219.146H231.791ZM230.23 219.146V220.707H228.669V219.146H230.23ZM233.352 219.146V220.707H231.791V219.146H233.352ZM234.913 219.146V220.707H233.352V219.146H234.913ZM230.23 217.585V219.146H228.669V217.585H230.23ZM228.669 217.585V219.146H227.108V217.585H228.669ZM228.669 216.024V217.585H227.108V216.024H228.669ZM230.23 216.024V217.585H228.669V216.024H230.23ZM231.791 216.024V217.585H230.23V216.024H231.791ZM233.352 216.024V217.585H231.791V216.024H233.352ZM234.913 216.024V217.585H233.352V216.024H234.913ZM234.913 214.463V216.024H233.352V214.463H234.913ZM233.352 214.463V216.024H231.791V214.463H233.352ZM231.791 214.463V216.024H230.23V214.463H231.791ZM230.23 214.463V216.024H228.669V214.463H230.23ZM228.669 214.463V216.024H227.108V214.463H228.669ZM231.791 212.902V214.463H230.23V212.902H231.791ZM233.352 212.902V214.463H231.791V212.902H233.352ZM230.23 212.902V214.463H228.669V212.902H230.23ZM230.23 211.341V212.902H228.669V211.341H230.23ZM228.669 211.341V212.902H227.108V211.341H228.669ZM228.669 212.902V214.463H227.108V212.902H228.669ZM227.108 212.902V214.463H225.547V212.902H227.108ZM227.108 211.341V212.902H225.547V211.341H227.108ZM227.108 214.463V216.024H225.547V214.463H227.108ZM225.547 214.463V216.024H223.986V214.463H225.547ZM225.547 216.024V217.585H223.986V216.024H225.547ZM227.108 216.024V217.585H225.547V216.024H227.108ZM223.986 216.024V217.585H222.425V216.024H223.986ZM223.986 214.463V216.024H222.425V214.463H223.986ZM223.986 212.902V214.463H222.425V212.902H223.986ZM223.986 211.341V212.902H222.425V211.341H223.986ZM225.547 211.341V212.902H223.986V211.341H225.547ZM225.547 212.902V214.463H223.986V212.902H225.547ZM222.425 211.341V212.902H220.864V211.341H222.425ZM220.864 211.341V212.902H219.303V211.341H220.864ZM219.303 211.341V212.902H217.742V211.341H219.303ZM219.303 212.902V214.463H217.742V212.902H219.303ZM219.303 214.463V216.024H217.742V214.463H219.303ZM219.303 216.024V217.585H217.742V216.024H219.303ZM220.864 216.024V217.585H219.303V216.024H220.864ZM222.425 216.024V217.585H220.864V216.024H222.425ZM222.425 214.463V216.024H220.864V214.463H222.425ZM222.425 212.902V214.463H220.864V212.902H222.425ZM220.864 212.902V214.463H219.303V212.902H220.864ZM220.864 214.463V216.024H219.303V214.463H220.864ZM217.742 214.463V216.024H216.181V214.463H217.742ZM217.742 212.902V214.463H216.181V212.902H217.742ZM216.181 212.902V214.463H214.62V212.902H216.181ZM216.181 214.463V216.024H214.62V214.463H216.181ZM214.62 214.463V216.024H213.059V214.463H214.62ZM214.62 216.024V217.585H213.059V216.024H214.62ZM214.62 217.585V219.146H213.059V217.585H214.62ZM216.181 217.585V219.146H214.62V217.585H216.181ZM216.181 216.024V217.585H214.62V216.024H216.181ZM217.742 216.024V217.585H216.181V216.024H217.742ZM217.742 217.585V219.146H216.181V217.585H217.742ZM219.303 217.585V219.146H217.742V217.585H219.303ZM220.864 217.585V219.146H219.303V217.585H220.864ZM213.059 217.585V219.146H211.498V217.585H213.059ZM213.059 219.146V220.707H211.498V219.146H213.059ZM213.059 220.707V222.268H211.498V220.707H213.059ZM213.059 222.268V223.829H211.498V222.268H213.059ZM213.059 223.829V225.39H211.498V223.829H213.059ZM213.059 225.39V226.951H211.498V225.39H213.059ZM213.059 226.951V228.512H211.498V226.951H213.059ZM213.059 228.512V230.073H211.498V228.512H213.059ZM213.059 230.073V231.634H211.498V230.073H213.059ZM213.059 231.634V233.195H211.498V231.634H213.059ZM214.62 231.634V233.195H213.059V231.634H214.62ZM214.62 233.195V234.756H213.059V233.195H214.62ZM213.059 233.195V234.756H211.498V233.195H213.059ZM216.181 233.195V234.756H214.62V233.195H216.181ZM217.742 233.195V234.756H216.181V233.195H217.742ZM219.303 233.195V234.756H217.742V233.195H219.303ZM220.864 233.195V234.756H219.303V233.195H220.864ZM219.303 231.634V233.195H217.742V231.634H219.303ZM219.303 230.073V231.634H217.742V230.073H219.303ZM219.303 228.512V230.073H217.742V228.512H219.303ZM219.303 226.951V228.512H217.742V226.951H219.303ZM219.303 225.39V226.951H217.742V225.39H219.303ZM219.303 223.829V225.39H217.742V223.829H219.303ZM219.303 222.268V223.829H217.742V222.268H219.303ZM219.303 220.707V222.268H217.742V220.707H219.303ZM219.303 219.146V220.707H217.742V219.146H219.303ZM217.742 219.146V220.707H216.181V219.146H217.742ZM216.181 219.146V220.707H214.62V219.146H216.181ZM214.62 219.146V220.707H213.059V219.146H214.62ZM214.62 220.707V222.268H213.059V220.707H214.62ZM214.62 222.268V223.829H213.059V222.268H214.62ZM214.62 223.829V225.39H213.059V223.829H214.62ZM214.62 225.39V226.951H213.059V225.39H214.62ZM214.62 226.951V228.512H213.059V226.951H214.62ZM214.62 228.512V230.073H213.059V228.512H214.62ZM214.62 230.073V231.634H213.059V230.073H214.62ZM216.181 231.634V233.195H214.62V231.634H216.181ZM217.742 231.634V233.195H216.181V231.634H217.742ZM217.742 230.073V231.634H216.181V230.073H217.742ZM217.742 228.512V230.073H216.181V228.512H217.742ZM217.742 226.951V228.512H216.181V226.951H217.742ZM217.742 225.39V226.951H216.181V225.39H217.742ZM216.181 225.39V226.951H214.62V225.39H216.181ZM216.181 223.829V225.39H214.62V223.829H216.181ZM216.181 222.268V223.829H214.62V222.268H216.181ZM216.181 220.707V222.268H214.62V220.707H216.181ZM217.742 220.707V222.268H216.181V220.707H217.742ZM217.742 222.268V223.829H216.181V222.268H217.742ZM217.742 223.829V225.39H216.181V223.829H217.742ZM216.181 228.512V230.073H214.62V228.512H216.181ZM216.181 230.073V231.634H214.62V230.073H216.181ZM216.181 226.951V228.512H214.62V226.951H216.181ZM230.23 231.634V233.195H228.669V231.634H230.23ZM231.791 231.634V233.195H230.23V231.634H231.791ZM233.352 231.634V233.195H231.791V231.634H233.352ZM234.913 231.634V233.195H233.352V231.634H234.913ZM236.474 231.634V233.195H234.913V231.634H236.474ZM236.474 233.195V234.756H234.913V233.195H236.474ZM234.913 233.195V234.756H233.352V233.195H234.913ZM233.352 233.195V234.756H231.791V233.195H233.352ZM231.791 233.195V234.756H230.23V233.195H231.791ZM230.23 233.195V234.756H228.669V233.195H230.23ZM228.669 233.195V234.756H227.108V233.195H228.669ZM228.669 234.756V236.317H227.108V234.756H228.669ZM230.23 234.756V236.317H228.669V234.756H230.23ZM231.791 234.756V236.317H230.23V234.756H231.791ZM233.352 234.756V236.317H231.791V234.756H233.352ZM233.352 236.317V237.878H231.791V236.317H233.352ZM234.913 236.317V237.878H233.352V236.317H234.913ZM234.913 234.756V236.317H233.352V234.756H234.913ZM233.352 237.878V239.439H231.791V237.878H233.352ZM231.791 237.878V239.439H230.23V237.878H231.791ZM231.791 236.317V237.878H230.23V236.317H231.791ZM230.23 236.317V237.878H228.669V236.317H230.23ZM230.23 237.878V239.439H228.669V237.878H230.23ZM230.23 239.439V241H228.669V239.439H230.23ZM228.669 239.439V241H227.108V239.439H228.669ZM227.108 239.439V241H225.547V239.439H227.108ZM225.547 239.439V241H223.986V239.439H225.547ZM223.986 239.439V241H222.425V239.439H223.986ZM222.425 239.439V241H220.864V239.439H222.425ZM220.864 239.439V241H219.303V239.439H220.864ZM219.303 239.439V241H217.742V239.439H219.303ZM220.864 237.878V239.439H219.303V237.878H220.864ZM222.425 237.878V239.439H220.864V237.878H222.425ZM223.986 237.878V239.439H222.425V237.878H223.986ZM225.547 237.878V239.439H223.986V237.878H225.547ZM227.108 237.878V239.439H225.547V237.878H227.108ZM228.669 237.878V239.439H227.108V237.878H228.669ZM228.669 236.317V237.878H227.108V236.317H228.669ZM227.108 236.317V237.878H225.547V236.317H227.108ZM225.547 236.317V237.878H223.986V236.317H225.547ZM223.986 236.317V237.878H222.425V236.317H223.986ZM222.425 236.317V237.878H220.864V236.317H222.425ZM220.864 236.317V237.878H219.303V236.317H220.864ZM219.303 237.878V239.439H217.742V237.878H219.303ZM217.742 237.878V239.439H216.181V237.878H217.742ZM216.181 237.878V239.439H214.62V237.878H216.181ZM216.181 236.317V237.878H214.62V236.317H216.181ZM214.62 236.317V237.878H213.059V236.317H214.62ZM214.62 234.756V236.317H213.059V234.756H214.62ZM216.181 234.756V236.317H214.62V234.756H216.181ZM217.742 234.756V236.317H216.181V234.756H217.742ZM219.303 234.756V236.317H217.742V234.756H219.303ZM220.864 234.756V236.317H219.303V234.756H220.864ZM222.425 234.756V236.317H220.864V234.756H222.425ZM223.986 234.756V236.317H222.425V234.756H223.986ZM225.547 234.756V236.317H223.986V234.756H225.547ZM227.108 234.756V236.317H225.547V234.756H227.108ZM219.303 236.317V237.878H217.742V236.317H219.303ZM217.742 236.317V237.878H216.181V236.317H217.742ZM236.474 222.268V223.829H234.913V222.268H236.474ZM234.913 222.268V223.829H233.352V222.268H234.913ZM233.352 222.268V223.829H231.791V222.268H233.352ZM231.791 222.268V223.829H230.23V222.268H231.791ZM230.23 222.268V223.829H228.669V222.268H230.23ZM236.474 223.829V225.39H234.913V223.829H236.474ZM233.352 223.829V225.39H231.791V223.829H233.352ZM231.791 223.829V225.39H230.23V223.829H231.791ZM228.669 223.829V225.39H227.108V223.829H228.669ZM227.108 223.829V225.39H225.547V223.829H227.108ZM225.547 223.829V225.39H223.986V223.829H225.547ZM223.986 223.829V225.39H222.425V223.829H223.986ZM222.425 223.829V225.39H220.864V223.829H222.425ZM220.864 223.829V225.39H219.303V223.829H220.864ZM230.23 223.829V225.39H228.669V223.829H230.23ZM234.913 223.829V225.39H233.352V223.829H234.913ZM236.474 225.39V226.951H234.913V225.39H236.474ZM234.913 225.39V226.951H233.352V225.39H234.913ZM233.352 225.39V226.951H231.791V225.39H233.352ZM231.791 225.39V226.951H230.23V225.39H231.791ZM230.23 225.39V226.951H228.669V225.39H230.23ZM228.669 225.39V226.951H227.108V225.39H228.669ZM227.108 225.39V226.951H225.547V225.39H227.108ZM225.547 225.39V226.951H223.986V225.39H225.547ZM223.986 225.39V226.951H222.425V225.39H223.986ZM222.425 225.39V226.951H220.864V225.39H222.425ZM220.864 225.39V226.951H219.303V225.39H220.864ZM220.864 226.951V228.512H219.303V226.951H220.864ZM222.425 226.951V228.512H220.864V226.951H222.425ZM223.986 226.951V228.512H222.425V226.951H223.986ZM227.108 226.951V228.512H225.547V226.951H227.108ZM228.669 226.951V228.512H227.108V226.951H228.669ZM230.23 226.951V228.512H228.669V226.951H230.23ZM231.791 226.951V228.512H230.23V226.951H231.791ZM233.352 226.951V228.512H231.791V226.951H233.352ZM234.913 226.951V228.512H233.352V226.951H234.913ZM236.474 226.951V228.512H234.913V226.951H236.474ZM225.547 226.951V228.512H223.986V226.951H225.547Z" fill="white"/>
</g>
<defs>
<clipPath id="clip0_38_20">
<rect width="256" height="256" fill="white"/>
</clipPath>
</defs>
</svg>
