<svg width="256" height="256" viewBox="0 0 256 256" fill="none" xmlns="http://www.w3.org/2000/svg">
<g clip-path="url(#clip0_38_21)">
<path d="M182.857 219.429C182.857 229.512 168.853 240.855 146.716 245.029C137.681 245.029 133.278 245.029 119.054 245.029C69.4607 245.029 29.2573 233.567 29.2573 219.429C29.2573 205.29 69.4607 193.829 119.054 193.829C168.648 193.829 182.857 205.29 182.857 219.429Z" fill="black"/>
<path d="M248.686 117.424C248.686 179.874 193.377 241.371 130.547 241.371C67.7172 241.371 3.65723 175.525 3.65723 113.075C3.65723 50.6255 54.5906 0 117.42 0C180.25 0 248.686 54.9745 248.686 117.424Z" fill="#F61F7D"/>
<path fill-rule="evenodd" clip-rule="evenodd" d="M204.66 194.834C224.612 173.501 237.018 145.278 237.018 117.424C237.018 90.5388 222.197 64.169 198.994 44.1377C175.812 24.1251 145.622 11.6793 117.42 11.6793C60.9573 11.6793 15.3253 57.1531 15.3253 113.075C15.3253 140.464 29.5281 169.747 51.8558 192.448C74.1834 215.149 103.079 229.692 130.547 229.692C158.108 229.692 184.717 216.156 204.66 194.834ZM130.547 241.371C193.377 241.371 248.686 179.874 248.686 117.424C248.686 54.9745 180.25 0 117.42 0C54.5906 0 3.65723 50.6255 3.65723 113.075C3.65723 175.525 67.7172 241.371 130.547 241.371Z" fill="black"/>
<path d="M256 129.829C256 193.452 204.423 245.029 140.8 245.029C77.1768 245.029 25.6001 193.452 25.6001 129.829C25.6001 66.2053 77.1768 14.6286 140.8 14.6286C204.423 14.6286 256 66.2053 256 129.829Z" fill="white"/>
<path fill-rule="evenodd" clip-rule="evenodd" d="M140.8 233.313C197.953 233.313 244.285 186.982 244.285 129.829C244.285 72.6755 197.953 26.3438 140.8 26.3438C83.647 26.3438 37.3154 72.6755 37.3154 129.829C37.3154 186.982 83.647 233.313 140.8 233.313ZM140.8 245.029C204.423 245.029 256 193.452 256 129.829C256 66.2053 204.423 14.6286 140.8 14.6286C77.1768 14.6286 25.6001 66.2053 25.6001 129.829C25.6001 193.452 77.1768 245.029 140.8 245.029Z" fill="black"/>
<path fill-rule="evenodd" clip-rule="evenodd" d="M32.2478 113.371L7.31445 93.3449L15.2954 84.1143L40.2287 104.141L32.2478 113.371Z" fill="black"/>
<path d="M62.1714 106.057H72.7394L76.0769 138.023L80.3181 106.125H88.5917L93.0417 137.82L96.4483 106.057H106.878L100.133 160.914H89.2873L84.4898 127.797L79.9703 160.914H68.985L62.1714 106.057Z" fill="black"/>
<path d="M116.421 106.057H141.729V114.32H128.867V127.932H138.67V136.33H128.867V152.72H141.869V160.914H116.421V106.057Z" fill="black"/>
<path d="M156.14 115.065H147.519V106.057H177.207V115.065H168.655V160.914H156.14V115.065Z" fill="black"/>
<path d="M185.777 106.057H198.223V128.271H206.913V106.057H219.429V160.914H206.913V136.94H198.223V160.914H185.777V106.057Z" fill="black"/>
<circle cx="224" cy="224" r="32" fill="#644AEE"/>
<path d="M230.23 220.707V222.268H228.669V220.707H230.23ZM231.791 220.707V222.268H230.23V220.707H231.791ZM233.352 220.707V222.268H231.791V220.707H233.352ZM234.913 220.707V222.268H233.352V220.707H234.913ZM236.474 220.707V222.268H234.913V220.707H236.474ZM236.474 219.146V220.707H234.913V219.146H236.474ZM236.474 217.585V219.146H234.913V217.585H236.474ZM234.913 217.585V219.146H233.352V217.585H234.913ZM233.352 217.585V219.146H231.791V217.585H233.352ZM231.791 217.585V219.146H230.23V217.585H231.791ZM231.791 219.146V220.707H230.23V219.146H231.791ZM230.23 219.146V220.707H228.669V219.146H230.23ZM233.352 219.146V220.707H231.791V219.146H233.352ZM234.913 219.146V220.707H233.352V219.146H234.913ZM230.23 217.585V219.146H228.669V217.585H230.23ZM228.669 217.585V219.146H227.108V217.585H228.669ZM228.669 216.024V217.585H227.108V216.024H228.669ZM230.23 216.024V217.585H228.669V216.024H230.23ZM231.791 216.024V217.585H230.23V216.024H231.791ZM233.352 216.024V217.585H231.791V216.024H233.352ZM234.913 216.024V217.585H233.352V216.024H234.913ZM234.913 214.463V216.024H233.352V214.463H234.913ZM233.352 214.463V216.024H231.791V214.463H233.352ZM231.791 214.463V216.024H230.23V214.463H231.791ZM230.23 214.463V216.024H228.669V214.463H230.23ZM228.669 214.463V216.024H227.108V214.463H228.669ZM231.791 212.902V214.463H230.23V212.902H231.791ZM233.352 212.902V214.463H231.791V212.902H233.352ZM230.23 212.902V214.463H228.669V212.902H230.23ZM230.23 211.341V212.902H228.669V211.341H230.23ZM228.669 211.341V212.902H227.108V211.341H228.669ZM228.669 212.902V214.463H227.108V212.902H228.669ZM227.108 212.902V214.463H225.547V212.902H227.108ZM227.108 211.341V212.902H225.547V211.341H227.108ZM227.108 214.463V216.024H225.547V214.463H227.108ZM225.547 214.463V216.024H223.986V214.463H225.547ZM225.547 216.024V217.585H223.986V216.024H225.547ZM227.108 216.024V217.585H225.547V216.024H227.108ZM223.986 216.024V217.585H222.425V216.024H223.986ZM223.986 214.463V216.024H222.425V214.463H223.986ZM223.986 212.902V214.463H222.425V212.902H223.986ZM223.986 211.341V212.902H222.425V211.341H223.986ZM225.547 211.341V212.902H223.986V211.341H225.547ZM225.547 212.902V214.463H223.986V212.902H225.547ZM222.425 211.341V212.902H220.864V211.341H222.425ZM220.864 211.341V212.902H219.303V211.341H220.864ZM219.303 211.341V212.902H217.742V211.341H219.303ZM219.303 212.902V214.463H217.742V212.902H219.303ZM219.303 214.463V216.024H217.742V214.463H219.303ZM219.303 216.024V217.585H217.742V216.024H219.303ZM220.864 216.024V217.585H219.303V216.024H220.864ZM222.425 216.024V217.585H220.864V216.024H222.425ZM222.425 214.463V216.024H220.864V214.463H222.425ZM222.425 212.902V214.463H220.864V212.902H222.425ZM220.864 212.902V214.463H219.303V212.902H220.864ZM220.864 214.463V216.024H219.303V214.463H220.864ZM217.742 214.463V216.024H216.181V214.463H217.742ZM217.742 212.902V214.463H216.181V212.902H217.742ZM216.181 212.902V214.463H214.62V212.902H216.181ZM216.181 214.463V216.024H214.62V214.463H216.181ZM214.62 214.463V216.024H213.059V214.463H214.62ZM214.62 216.024V217.585H213.059V216.024H214.62ZM214.62 217.585V219.146H213.059V217.585H214.62ZM216.181 217.585V219.146H214.62V217.585H216.181ZM216.181 216.024V217.585H214.62V216.024H216.181ZM217.742 216.024V217.585H216.181V216.024H217.742ZM217.742 217.585V219.146H216.181V217.585H217.742ZM219.303 217.585V219.146H217.742V217.585H219.303ZM220.864 217.585V219.146H219.303V217.585H220.864ZM213.059 217.585V219.146H211.498V217.585H213.059ZM213.059 219.146V220.707H211.498V219.146H213.059ZM213.059 220.707V222.268H211.498V220.707H213.059ZM213.059 222.268V223.829H211.498V222.268H213.059ZM213.059 223.829V225.39H211.498V223.829H213.059ZM213.059 225.39V226.951H211.498V225.39H213.059ZM213.059 226.951V228.512H211.498V226.951H213.059ZM213.059 228.512V230.073H211.498V228.512H213.059ZM213.059 230.073V231.634H211.498V230.073H213.059ZM213.059 231.634V233.195H211.498V231.634H213.059ZM214.62 231.634V233.195H213.059V231.634H214.62ZM214.62 233.195V234.756H213.059V233.195H214.62ZM213.059 233.195V234.756H211.498V233.195H213.059ZM216.181 233.195V234.756H214.62V233.195H216.181ZM217.742 233.195V234.756H216.181V233.195H217.742ZM219.303 233.195V234.756H217.742V233.195H219.303ZM220.864 233.195V234.756H219.303V233.195H220.864ZM219.303 231.634V233.195H217.742V231.634H219.303ZM219.303 230.073V231.634H217.742V230.073H219.303ZM219.303 228.512V230.073H217.742V228.512H219.303ZM219.303 226.951V228.512H217.742V226.951H219.303ZM219.303 225.39V226.951H217.742V225.39H219.303ZM219.303 223.829V225.39H217.742V223.829H219.303ZM219.303 222.268V223.829H217.742V222.268H219.303ZM219.303 220.707V222.268H217.742V220.707H219.303ZM219.303 219.146V220.707H217.742V219.146H219.303ZM217.742 219.146V220.707H216.181V219.146H217.742ZM216.181 219.146V220.707H214.62V219.146H216.181ZM214.62 219.146V220.707H213.059V219.146H214.62ZM214.62 220.707V222.268H213.059V220.707H214.62ZM214.62 222.268V223.829H213.059V222.268H214.62ZM214.62 223.829V225.39H213.059V223.829H214.62ZM214.62 225.39V226.951H213.059V225.39H214.62ZM214.62 226.951V228.512H213.059V226.951H214.62ZM214.62 228.512V230.073H213.059V228.512H214.62ZM214.62 230.073V231.634H213.059V230.073H214.62ZM216.181 231.634V233.195H214.62V231.634H216.181ZM217.742 231.634V233.195H216.181V231.634H217.742ZM217.742 230.073V231.634H216.181V230.073H217.742ZM217.742 228.512V230.073H216.181V228.512H217.742ZM217.742 226.951V228.512H216.181V226.951H217.742ZM217.742 225.39V226.951H216.181V225.39H217.742ZM216.181 225.39V226.951H214.62V225.39H216.181ZM216.181 223.829V225.39H214.62V223.829H216.181ZM216.181 222.268V223.829H214.62V222.268H216.181ZM216.181 220.707V222.268H214.62V220.707H216.181ZM217.742 220.707V222.268H216.181V220.707H217.742ZM217.742 222.268V223.829H216.181V222.268H217.742ZM217.742 223.829V225.39H216.181V223.829H217.742ZM216.181 228.512V230.073H214.62V228.512H216.181ZM216.181 230.073V231.634H214.62V230.073H216.181ZM216.181 226.951V228.512H214.62V226.951H216.181ZM230.23 231.634V233.195H228.669V231.634H230.23ZM231.791 231.634V233.195H230.23V231.634H231.791ZM233.352 231.634V233.195H231.791V231.634H233.352ZM234.913 231.634V233.195H233.352V231.634H234.913ZM236.474 231.634V233.195H234.913V231.634H236.474ZM236.474 233.195V234.756H234.913V233.195H236.474ZM234.913 233.195V234.756H233.352V233.195H234.913ZM233.352 233.195V234.756H231.791V233.195H233.352ZM231.791 233.195V234.756H230.23V233.195H231.791ZM230.23 233.195V234.756H228.669V233.195H230.23ZM228.669 233.195V234.756H227.108V233.195H228.669ZM228.669 234.756V236.317H227.108V234.756H228.669ZM230.23 234.756V236.317H228.669V234.756H230.23ZM231.791 234.756V236.317H230.23V234.756H231.791ZM233.352 234.756V236.317H231.791V234.756H233.352ZM233.352 236.317V237.878H231.791V236.317H233.352ZM234.913 236.317V237.878H233.352V236.317H234.913ZM234.913 234.756V236.317H233.352V234.756H234.913ZM233.352 237.878V239.439H231.791V237.878H233.352ZM231.791 237.878V239.439H230.23V237.878H231.791ZM231.791 236.317V237.878H230.23V236.317H231.791ZM230.23 236.317V237.878H228.669V236.317H230.23ZM230.23 237.878V239.439H228.669V237.878H230.23ZM230.23 239.439V241H228.669V239.439H230.23ZM228.669 239.439V241H227.108V239.439H228.669ZM227.108 239.439V241H225.547V239.439H227.108ZM225.547 239.439V241H223.986V239.439H225.547ZM223.986 239.439V241H222.425V239.439H223.986ZM222.425 239.439V241H220.864V239.439H222.425ZM220.864 239.439V241H219.303V239.439H220.864ZM219.303 239.439V241H217.742V239.439H219.303ZM220.864 237.878V239.439H219.303V237.878H220.864ZM222.425 237.878V239.439H220.864V237.878H222.425ZM223.986 237.878V239.439H222.425V237.878H223.986ZM225.547 237.878V239.439H223.986V237.878H225.547ZM227.108 237.878V239.439H225.547V237.878H227.108ZM228.669 237.878V239.439H227.108V237.878H228.669ZM228.669 236.317V237.878H227.108V236.317H228.669ZM227.108 236.317V237.878H225.547V236.317H227.108ZM225.547 236.317V237.878H223.986V236.317H225.547ZM223.986 236.317V237.878H222.425V236.317H223.986ZM222.425 236.317V237.878H220.864V236.317H222.425ZM220.864 236.317V237.878H219.303V236.317H220.864ZM219.303 237.878V239.439H217.742V237.878H219.303ZM217.742 237.878V239.439H216.181V237.878H217.742ZM216.181 237.878V239.439H214.62V237.878H216.181ZM216.181 236.317V237.878H214.62V236.317H216.181ZM214.62 236.317V237.878H213.059V236.317H214.62ZM214.62 234.756V236.317H213.059V234.756H214.62ZM216.181 234.756V236.317H214.62V234.756H216.181ZM217.742 234.756V236.317H216.181V234.756H217.742ZM219.303 234.756V236.317H217.742V234.756H219.303ZM220.864 234.756V236.317H219.303V234.756H220.864ZM222.425 234.756V236.317H220.864V234.756H222.425ZM223.986 234.756V236.317H222.425V234.756H223.986ZM225.547 234.756V236.317H223.986V234.756H225.547ZM227.108 234.756V236.317H225.547V234.756H227.108ZM219.303 236.317V237.878H217.742V236.317H219.303ZM217.742 236.317V237.878H216.181V236.317H217.742ZM236.474 222.268V223.829H234.913V222.268H236.474ZM234.913 222.268V223.829H233.352V222.268H234.913ZM233.352 222.268V223.829H231.791V222.268H233.352ZM231.791 222.268V223.829H230.23V222.268H231.791ZM230.23 222.268V223.829H228.669V222.268H230.23ZM236.474 223.829V225.39H234.913V223.829H236.474ZM233.352 223.829V225.39H231.791V223.829H233.352ZM231.791 223.829V225.39H230.23V223.829H231.791ZM228.669 223.829V225.39H227.108V223.829H228.669ZM227.108 223.829V225.39H225.547V223.829H227.108ZM225.547 223.829V225.39H223.986V223.829H225.547ZM223.986 223.829V225.39H222.425V223.829H223.986ZM222.425 223.829V225.39H220.864V223.829H222.425ZM220.864 223.829V225.39H219.303V223.829H220.864ZM230.23 223.829V225.39H228.669V223.829H230.23ZM234.913 223.829V225.39H233.352V223.829H234.913ZM236.474 225.39V226.951H234.913V225.39H236.474ZM234.913 225.39V226.951H233.352V225.39H234.913ZM233.352 225.39V226.951H231.791V225.39H233.352ZM231.791 225.39V226.951H230.23V225.39H231.791ZM230.23 225.39V226.951H228.669V225.39H230.23ZM228.669 225.39V226.951H227.108V225.39H228.669ZM227.108 225.39V226.951H225.547V225.39H227.108ZM225.547 225.39V226.951H223.986V225.39H225.547ZM223.986 225.39V226.951H222.425V225.39H223.986ZM222.425 225.39V226.951H220.864V225.39H222.425ZM220.864 225.39V226.951H219.303V225.39H220.864ZM220.864 226.951V228.512H219.303V226.951H220.864ZM222.425 226.951V228.512H220.864V226.951H222.425ZM223.986 226.951V228.512H222.425V226.951H223.986ZM227.108 226.951V228.512H225.547V226.951H227.108ZM228.669 226.951V228.512H227.108V226.951H228.669ZM230.23 226.951V228.512H228.669V226.951H230.23ZM231.791 226.951V228.512H230.23V226.951H231.791ZM233.352 226.951V228.512H231.791V226.951H233.352ZM234.913 226.951V228.512H233.352V226.951H234.913ZM236.474 226.951V228.512H234.913V226.951H236.474ZM225.547 226.951V228.512H223.986V226.951H225.547Z" fill="white"/>
</g>
<defs>
<clipPath id="clip0_38_21">
<rect width="256" height="256" fill="white"/>
</clipPath>
</defs>
</svg>
